<svg width="1370" height="157" viewBox="0 0 1370 157" fill="none" xmlns="http://www.w3.org/2000/svg">
<path d="M275.704 117.425C185.614 113.118 73.9804 39.4882 25.0069 3.92628C14.7987 -3.48637 0 3.81283 0 16.4285V142C0 150.284 6.71572 157 15 157H1355C1363.28 157 1370 150.284 1370 142V70.5865C1370 56.7984 1352.47 49.8467 1342.55 59.4231C1321.95 79.3035 1292.92 104.572 1266.74 117.425C1162.66 168.504 1087.44 81.013 971.983 87.9971C899.955 92.3539 861.664 118.631 789.517 117.425C682.697 115.639 633.17 40.4113 526.345 41.826C424.219 43.1784 377.725 122.301 275.704 117.425Z" fill="#9CBCF8"/>
</svg>
