<svg width="18" height="18" viewBox="0 0 18 18" fill="none" xmlns="http://www.w3.org/2000/svg">
<mask id="mask0_900_4651" style="mask-type:alpha" maskUnits="userSpaceOnUse" x="0" y="-1" width="18" height="19">
<rect y="-0.000488281" width="18" height="18" fill="#D9D9D9"/>
</mask>
<g mask="url(#mask0_900_4651)">
<path d="M3.00195 14.9995C2.58945 14.9995 2.23633 14.8526 1.94258 14.5589C1.64883 14.2651 1.50195 13.912 1.50195 13.4995V4.49951C1.50195 4.08701 1.64883 3.73389 1.94258 3.44014C2.23633 3.14639 2.58945 2.99951 3.00195 2.99951H15.002C15.4145 2.99951 15.7676 3.14639 16.0613 3.44014C16.3551 3.73389 16.502 4.08701 16.502 4.49951V13.4995C16.502 13.912 16.3551 14.2651 16.0613 14.5589C15.7676 14.8526 15.4145 14.9995 15.002 14.9995H3.00195ZM9.00195 9.74951L3.00195 5.99951V13.4995H15.002V5.99951L9.00195 9.74951ZM9.00195 8.24951L15.002 4.49951H3.00195L9.00195 8.24951ZM3.00195 5.99951V4.49951V13.4995V5.99951Z" fill="#606060"/>
</g>
</svg>
