<svg width="18" height="18" viewBox="0 0 18 18" fill="none" xmlns="http://www.w3.org/2000/svg">
<mask id="mask0_900_4648" style="mask-type:alpha" maskUnits="userSpaceOnUse" x="0" y="-1" width="18" height="19">
<rect y="-0.000488281" width="18" height="18" fill="#D9D9D9"/>
</mask>
<g mask="url(#mask0_900_4648)">
<path d="M14.9625 15.7495C13.4 15.7495 11.8563 15.4089 10.3313 14.7276C8.80625 14.0464 7.41875 13.0808 6.16875 11.8308C4.91875 10.5808 3.95312 9.19326 3.27188 7.66826C2.59063 6.14326 2.25 4.59951 2.25 3.03701C2.25 2.81201 2.325 2.62451 2.475 2.47451C2.625 2.32451 2.8125 2.24951 3.0375 2.24951H6.075C6.25 2.24951 6.40625 2.30889 6.54375 2.42764C6.68125 2.54639 6.7625 2.68701 6.7875 2.84951L7.275 5.47451C7.3 5.67451 7.29375 5.84326 7.25625 5.98076C7.21875 6.11826 7.15 6.23701 7.05 6.33701L5.23125 8.17451C5.48125 8.63701 5.77812 9.08389 6.12187 9.51514C6.46562 9.94639 6.84375 10.362 7.25625 10.762C7.64375 11.1495 8.05 11.5089 8.475 11.8401C8.9 12.1714 9.35 12.4745 9.825 12.7495L11.5875 10.987C11.7 10.8745 11.8469 10.7901 12.0281 10.7339C12.2094 10.6776 12.3875 10.662 12.5625 10.687L15.15 11.212C15.325 11.262 15.4688 11.3526 15.5812 11.4839C15.6937 11.6151 15.75 11.762 15.75 11.9245V14.962C15.75 15.187 15.675 15.3745 15.525 15.5245C15.375 15.6745 15.1875 15.7495 14.9625 15.7495ZM4.51875 6.74951L5.75625 5.51201L5.4375 3.74951H3.76875C3.83125 4.26201 3.91875 4.76826 4.03125 5.26826C4.14375 5.76826 4.30625 6.26201 4.51875 6.74951ZM11.2313 13.462C11.7188 13.6745 12.2156 13.8433 12.7219 13.9683C13.2281 14.0933 13.7375 14.1745 14.25 14.212V12.562L12.4875 12.2058L11.2313 13.462Z" fill="#606060"/>
</g>
</svg>
